<?xml version="1.0" encoding="UTF-8" standalone="no"?>
<!-- Created with Inkscape (http://www.inkscape.org/) -->

<svg
   xmlns:dc="http://purl.org/dc/elements/1.1/"
   xmlns:cc="http://creativecommons.org/ns#"
   xmlns:rdf="http://www.w3.org/1999/02/22-rdf-syntax-ns#"
   xmlns:svg="http://www.w3.org/2000/svg"
   xmlns="http://www.w3.org/2000/svg"
   xmlns:sodipodi="http://sodipodi.sourceforge.net/DTD/sodipodi-0.dtd"
   xmlns:inkscape="http://www.inkscape.org/namespaces/inkscape"
   width="1024px"
   height="768px"
   id="svg3959"
   version="1.1"
   inkscape:version="0.48.4 r9939"
   sodipodi:docname="maquette.svg">
  <defs
     id="defs3961" />
  <sodipodi:namedview
     id="base"
     pagecolor="#ffffff"
     bordercolor="#666666"
     borderopacity="1.0"
     inkscape:pageopacity="0.0"
     inkscape:pageshadow="2"
     inkscape:zoom="1"
     inkscape:cx="486.23367"
     inkscape:cy="475.95834"
     inkscape:current-layer="layer2"
     inkscape:document-units="px"
     showgrid="false"
     inkscape:window-width="1623"
     inkscape:window-height="1029"
     inkscape:window-x="57"
     inkscape:window-y="21"
     inkscape:window-maximized="1" />
  <metadata
     id="metadata3964">
    <rdf:RDF>
      <cc:Work
         rdf:about="">
        <dc:format>image/svg+xml</dc:format>
        <dc:type
           rdf:resource="http://purl.org/dc/dcmitype/StillImage" />
        <dc:title></dc:title>
      </cc:Work>
    </rdf:RDF>
  </metadata>
  <g
     id="layer1"
     inkscape:label="Layer 1"
     inkscape:groupmode="layer">
    <rect
       style="fill:#26343f;fill-opacity:1;fill-rule:evenodd;stroke:none"
       id="rect2993"
       width="1024.5123"
       height="768.09644"
       x="0.10941696"
       y="0.27975082" />
  </g>
  <g
     inkscape:groupmode="layer"
     id="layer2"
     inkscape:label="icons">
    <text
       xml:space="preserve"
       style="font-size:33.53484726px;font-style:normal;font-variant:normal;font-weight:normal;font-stretch:normal;line-height:125%;letter-spacing:0px;word-spacing:0px;fill:#628c02;fill-opacity:1;stroke:none;font-family:Ubuntu;-inkscape-font-specification:Ubuntu"
       x="442.54211"
       y="70.813782"
       id="text2985"
       sodipodi:linespacing="125%"
       transform="scale(1.0052864,0.99474141)"><tspan
         sodipodi:role="line"
         id="tspan2987"
         x="442.54211"
         y="70.813782"
         style="letter-spacing:-2.0707767px"><tspan
           id="tspan4652"
           style="fill:#b5d000;fill-opacity:1">ONEY</tspan><tspan
           style="letter-spacing:-2.0707767px;fill:#ffffff;fill-opacity:1"
           id="tspan3938">GILITY</tspan></tspan></text>
    <path
       style="fill:#b5d000;fill-opacity:1;stroke:none"
       mask="none"
       d="m 427.74628,43.64642 c -8.92504,0 -16.14786,7.190116 -16.14786,16.021529 0,8.83142 7.22282,15.978471 16.14786,15.978471 8.92502,0 16.19137,-7.147051 16.19137,-15.978471 0,-8.831413 -7.26635,-16.021529 -16.19137,-16.021529 z m -8.53095,7.020188 3.09029,0 c 0.38499,0.658021 0.78974,1.459476 1.26224,2.411836 0.47247,0.952409 0.98984,1.958536 1.47985,3.014808 0.48997,1.038975 0.96383,2.096181 1.43633,3.18708 0.48997,1.073593 0.90325,2.05399 1.30576,2.971741 0.40247,-0.917751 0.87678,-1.898148 1.34929,-2.971741 0.47247,-1.090899 0.94631,-2.148105 1.43632,-3.18708 0.48998,-1.056272 0.96382,-2.062399 1.43633,-3.014808 0.47246,-0.95236 0.92075,-1.753815 1.30575,-2.411836 l 2.95972,0 c 0.15747,1.316026 0.33876,2.688478 0.47878,4.177651 0.13998,1.471877 0.24319,3.006835 0.34819,4.565278 0.12243,1.541146 0.21716,3.118728 0.30469,4.694475 0.10509,1.558458 0.19113,3.076104 0.26115,4.565286 l -3.2644,0 c -0.0701,-2.095247 -0.15616,-4.243843 -0.26115,-6.460299 -0.0874,-2.216447 -0.19925,-4.382357 -0.39172,-6.460299 -0.19251,0.398284 -0.43393,0.867163 -0.6964,1.421264 -0.26252,0.554126 -0.52951,1.150876 -0.82698,1.808881 -0.2975,0.640717 -0.59906,1.331588 -0.91404,2.024236 -0.2975,0.692647 -0.61655,1.366213 -0.91402,2.024219 -0.28002,0.6407 -0.53848,1.237458 -0.78346,1.808881 -0.245,0.554126 -0.43437,1.022997 -0.60935,1.421272 l -2.48094,0 c -0.17499,-0.398275 -0.40789,-0.892916 -0.65287,-1.46433 -0.24501,-0.571431 -0.48596,-1.16819 -0.78345,-1.808889 -0.28,-0.658013 -0.59905,-1.331571 -0.91403,-2.024227 -0.29751,-0.692631 -0.57302,-1.340445 -0.87051,-1.981162 -0.29751,-0.640674 -0.60801,-1.254755 -0.87051,-1.808881 -0.26251,-0.571406 -0.46038,-1.040309 -0.65286,-1.421264 -0.19251,2.077942 -0.33026,4.243852 -0.43527,6.460299 -0.0874,2.216456 -0.19116,4.365052 -0.26114,6.460299 l -3.26439,0 c 0.0701,-1.489182 0.17365,-3.058324 0.26114,-4.651418 0.10509,-1.593068 0.19968,-3.136032 0.30468,-4.694475 0.12243,-1.575755 0.25172,-3.136474 0.39173,-4.608351 0.13999,-1.471845 0.27774,-2.801681 0.43525,-4.048446 z"
       id="path3763-8"
       inkscape:connector-curvature="0" />
    <rect
       style="opacity:0.95999995000000005;fill:none;stroke:#e9e9e9;stroke-width:0.5;stroke-miterlimit:4;stroke-opacity:1;stroke-dasharray:none"
       id="rect4073"
       width="173.21318"
       height="0.029874811"
       x="429.34671"
       y="112.7906" />
    <text
       xml:space="preserve"
       style="font-size:40px;font-style:normal;font-variant:normal;font-weight:normal;font-stretch:normal;line-height:125%;letter-spacing:0px;word-spacing:0px;fill:#000000;fill-opacity:1;stroke:none;font-family:Ubuntu;-inkscape-font-specification:Ubuntu"
       x="450"
       y="183"
       id="text4591"
       sodipodi:linespacing="125%"><tspan
         sodipodi:role="line"
         id="tspan4593"
         x="450"
         y="183"
         style="fill:#ffffff;fill-opacity:1">Sign in</tspan></text>
    <path
       style="fill:#b5d000;fill-opacity:1;stroke:none"
       mask="none"
       d="m 443.97824,-88 c -8.92504,0 -16.14786,7.190116 -16.14786,16.021529 0,8.83142 7.22282,15.978471 16.14786,15.978471 8.92502,0 16.19137,-7.147051 16.19137,-15.978471 C 460.16961,-80.809884 452.90326,-88 443.97824,-88 z m -8.53095,7.020188 3.09029,0 c 0.38499,0.658021 0.78974,1.459476 1.26224,2.411836 0.47247,0.952409 0.98984,1.958536 1.47985,3.014808 0.48997,1.038975 0.96383,2.096181 1.43633,3.18708 0.48997,1.073593 0.90325,2.05399 1.30576,2.971741 0.40247,-0.917751 0.87678,-1.898148 1.34929,-2.971741 0.47247,-1.090899 0.94631,-2.148105 1.43632,-3.18708 0.48998,-1.056272 0.96382,-2.062399 1.43633,-3.014808 0.47246,-0.95236 0.92075,-1.753815 1.30575,-2.411836 l 2.95972,0 c 0.15747,1.316026 0.33876,2.688478 0.47878,4.177651 0.13998,1.471877 0.24319,3.006835 0.34819,4.565278 0.12243,1.541146 0.21716,3.118728 0.30469,4.694475 0.10509,1.558458 0.19113,3.076104 0.26115,4.565286 l -3.2644,0 c -0.0701,-2.095247 -0.15616,-4.243843 -0.26115,-6.460299 -0.0874,-2.216447 -0.19925,-4.382357 -0.39172,-6.460299 -0.19251,0.398284 -0.43393,0.867163 -0.6964,1.421264 -0.26252,0.554126 -0.52951,1.150876 -0.82698,1.808881 -0.2975,0.640717 -0.59906,1.331588 -0.91404,2.024236 -0.2975,0.692647 -0.61655,1.366213 -0.91402,2.024219 -0.28002,0.6407 -0.53848,1.237458 -0.78346,1.808881 -0.245,0.554126 -0.43437,1.022997 -0.60935,1.421272 l -2.48094,0 c -0.17499,-0.398275 -0.40789,-0.892916 -0.65287,-1.46433 -0.24501,-0.571431 -0.48596,-1.16819 -0.78345,-1.808889 -0.28,-0.658013 -0.59905,-1.331571 -0.91403,-2.024227 -0.29751,-0.692631 -0.57302,-1.340445 -0.87051,-1.981162 -0.29751,-0.640674 -0.60801,-1.254755 -0.87051,-1.808881 -0.26251,-0.571406 -0.46038,-1.040309 -0.65286,-1.421264 -0.19251,2.077942 -0.33026,4.243852 -0.43527,6.460299 -0.0874,2.216456 -0.19116,4.365052 -0.26114,6.460299 l -3.26439,0 c 0.0701,-1.489182 0.17365,-3.058324 0.26114,-4.651418 0.10509,-1.593068 0.19968,-3.136032 0.30468,-4.694475 0.12243,-1.575755 0.25172,-3.136474 0.39173,-4.608351 0.13999,-1.471845 0.27774,-2.801681 0.43525,-4.048446 z"
       id="path3763-8-7"
       inkscape:connector-curvature="0"
       inkscape:export-filename="/home/lawrence/mm/web-app/images/favicon.png"
       inkscape:export-xdpi="90"
       inkscape:export-ydpi="90" />
  </g>
</svg>
